<svg width="634" height="717" viewBox="0 0 634 717" fill="none" xmlns="http://www.w3.org/2000/svg">
<path d="M632.52 10.6122H637.52V0.612244H632.52V10.6122ZM0.0214233 711.15C-0.233887 713.9 1.78821 716.336 4.53778 716.591C7.28741 716.846 9.72333 714.824 9.97858 712.075L0.0214233 711.15ZM632.52 0.612244C539.055 0.612244 456.87 -2.39636 385.592 4.91962C314.138 12.2536 252.897 30.007 201.225 71.9814C149.585 113.93 108.071 179.604 75.0864 281.668C42.1087 383.71 17.535 522.504 0.0214233 711.15L9.97858 712.075C27.465 523.721 51.9538 385.765 84.6017 284.744C117.242 183.745 157.917 120.045 207.53 79.7432C257.111 39.4675 316.186 22.0959 386.613 14.8674C457.215 7.62085 538.475 10.6122 632.52 10.6122V0.612244Z" fill="url(#paint0_linear_335_3)"/>
<path d="M633 126.512H638V116.512H633V126.512ZM103.021 711.538C102.766 714.287 104.788 716.723 107.538 716.979C110.287 717.234 112.723 715.212 112.979 712.462L103.021 711.538ZM633 116.512C554.852 116.512 486.019 113.994 426.33 120.119C366.466 126.262 315.053 141.141 271.653 176.387C228.283 211.606 193.483 266.697 165.859 352.149C138.242 437.579 117.676 553.733 103.021 711.538L112.979 712.462C127.606 554.95 148.087 439.634 175.374 355.225C202.654 270.839 236.615 217.723 277.957 184.15C319.266 150.602 368.514 136.104 427.351 130.067C486.363 124.012 554.272 126.512 633 126.512V116.512Z" fill="url(#paint1_linear_335_3)"/>
<path d="M634 248.406H639V238.406H634V248.406ZM212.021 711.537C211.766 714.287 213.788 716.723 216.537 716.979C219.287 717.234 221.723 715.212 221.979 712.463L212.021 711.537ZM634 238.406C571.988 238.406 517.22 236.407 469.74 241.274C422.086 246.159 381.028 258.007 346.34 286.151C311.684 314.269 283.956 358.192 261.978 426.115C240.008 494.014 223.664 586.278 212.021 711.537L221.979 712.463C233.594 587.496 249.853 496.072 271.493 429.193C293.125 362.337 320.013 320.389 352.641 293.916C385.237 267.469 424.132 256.002 470.76 251.222C517.563 246.424 571.408 248.406 634 248.406V238.406Z" fill="url(#paint2_linear_335_3)"/>
<defs>
<linearGradient id="paint0_linear_335_3" x1="4.51999" y1="712" x2="632.52" y2="4.99997" gradientUnits="userSpaceOnUse">
<stop stop-color="#00FD94" stop-opacity="0.01"/>
<stop offset="1" stop-color="#00FD94"/>
</linearGradient>
<linearGradient id="paint1_linear_335_3" x1="107.598" y1="712.324" x2="632.83" y2="120.849" gradientUnits="userSpaceOnUse">
<stop stop-color="#00FD94" stop-opacity="0.01"/>
<stop offset="1" stop-color="#00FD94"/>
</linearGradient>
<linearGradient id="paint2_linear_335_3" x1="216.681" y1="712.257" x2="633.445" y2="242.507" gradientUnits="userSpaceOnUse">
<stop stop-color="#00FD94" stop-opacity="0.01"/>
<stop offset="1" stop-color="#00FD94"/>
</linearGradient>
</defs>
</svg>
