<svg width="633" height="717" viewBox="0 0 633 717" fill="none" xmlns="http://www.w3.org/2000/svg">
<path d="M0.47998 10.6122H-4.52002L-4.52002 0.612244H0.47998L0.47998 10.6122ZM632.979 711.15C633.234 713.9 631.212 716.336 628.462 716.591C625.713 716.846 623.277 714.824 623.021 712.075L632.979 711.15ZM0.47998 0.612244C93.9448 0.612244 176.13 -2.39636 247.408 4.91962C318.862 12.2536 380.103 30.007 431.775 71.9814C483.415 113.93 524.929 179.604 557.914 281.668C590.891 383.71 615.465 522.504 632.979 711.15L623.021 712.075C605.535 523.721 581.046 385.765 548.398 284.744C515.758 183.745 475.083 120.045 425.47 79.7432C375.889 39.4675 316.814 22.0959 246.387 14.8674C175.785 7.62085 94.5251 10.6122 0.47998 10.6122L0.47998 0.612244Z" fill="url(#paint0_linear_335_2)"/>
<path d="M0 126.512H-5L-5 116.512H0L0 126.512ZM529.979 711.538C530.234 714.287 528.212 716.723 525.462 716.979C522.713 717.234 520.277 715.212 520.021 712.462L529.979 711.538ZM0 116.512C78.1479 116.512 146.981 113.994 206.67 120.119C266.534 126.262 317.947 141.141 361.347 176.387C404.717 211.606 439.517 266.697 467.141 352.149C494.758 437.579 515.324 553.733 529.979 711.538L520.021 712.462C505.394 554.95 484.913 439.634 457.626 355.225C430.346 270.839 396.385 217.723 355.043 184.15C313.734 150.602 264.486 136.104 205.649 130.067C146.637 124.012 78.728 126.512 0 126.512L0 116.512Z" fill="url(#paint1_linear_335_2)"/>
<path d="M-1 248.406H-6L-6 238.406H-1L-1 248.406ZM420.979 711.537C421.234 714.287 419.212 716.723 416.463 716.979C413.713 717.234 411.277 715.212 411.021 712.463L420.979 711.537ZM-1 238.406C61.0123 238.406 115.78 236.407 163.26 241.274C210.914 246.159 251.972 258.007 286.66 286.151C321.316 314.269 349.044 358.192 371.022 426.115C392.992 494.014 409.336 586.278 420.979 711.537L411.021 712.463C399.406 587.496 383.147 496.072 361.507 429.193C339.875 362.337 312.987 320.389 280.359 293.916C247.763 267.469 208.868 256.002 162.24 251.222C115.437 246.424 61.592 248.406 -1 248.406L-1 238.406Z" fill="url(#paint2_linear_335_2)"/>
<defs>
<linearGradient id="paint0_linear_335_2" x1="628.48" y1="712" x2="0.480011" y2="4.99997" gradientUnits="userSpaceOnUse">
<stop stop-color="#00FD94" stop-opacity="0.01"/>
<stop offset="1" stop-color="#00FD94"/>
</linearGradient>
<linearGradient id="paint1_linear_335_2" x1="525.402" y1="712.324" x2="0.169663" y2="120.849" gradientUnits="userSpaceOnUse">
<stop stop-color="#00FD94" stop-opacity="0.01"/>
<stop offset="1" stop-color="#00FD94"/>
</linearGradient>
<linearGradient id="paint2_linear_335_2" x1="416.319" y1="712.257" x2="-0.444866" y2="242.507" gradientUnits="userSpaceOnUse">
<stop stop-color="#00FD94" stop-opacity="0.01"/>
<stop offset="1" stop-color="#00FD94"/>
</linearGradient>
</defs>
</svg>
