<?xml version="1.0" encoding="UTF-8" standalone="no"?>
<!-- Created with Inkscape (http://www.inkscape.org/) -->

<svg
   width="210mm"
   height="297mm"
   viewBox="0 0 210 297"
   version="1.1"
   id="svg1"
   xml:space="preserve"
   sodipodi:docname="IF-SADD.svg"
   inkscape:version="1.4 (86a8ad7, 2024-10-11)"
   inkscape:export-filename="IF-SAAD.svg"
   inkscape:export-xdpi="96"
   inkscape:export-ydpi="96"
   xmlns:inkscape="http://www.inkscape.org/namespaces/inkscape"
   xmlns:sodipodi="http://sodipodi.sourceforge.net/DTD/sodipodi-0.dtd"
   xmlns:xlink="http://www.w3.org/1999/xlink"
   xmlns="http://www.w3.org/2000/svg"
   xmlns:svg="http://www.w3.org/2000/svg"><sodipodi:namedview
     id="namedview1"
     pagecolor="#ffffff"
     bordercolor="#eeeeee"
     borderopacity="1"
     inkscape:showpageshadow="0"
     inkscape:pageopacity="0"
     inkscape:pagecheckerboard="0"
     inkscape:deskcolor="#505050"
     inkscape:document-units="mm"
     inkscape:zoom="0.72441741"
     inkscape:cx="415.5063"
     inkscape:cy="432.76155"
     inkscape:window-width="1366"
     inkscape:window-height="705"
     inkscape:window-x="1358"
     inkscape:window-y="-8"
     inkscape:window-maximized="1"
     inkscape:current-layer="svg1"
     showgrid="false" /><defs
     id="defs1" /><ellipse
     style="fill:#ff0000;stroke:none;stroke-width:0.295498"
     id="path10"
     cx="90.415802"
     cy="38.297459"
     rx="6.960278"
     ry="7.0850034" /><rect
     style="fill:#008000;stroke:none;stroke-width:0.27498"
     id="rect16"
     width="13"
     height="13"
     x="83.911118"
     y="46.44735"
     ry="1.2296066" /><rect
     style="fill:#008000;stroke:none;stroke-width:0.27498"
     id="rect17"
     width="13"
     height="13"
     x="98.727791"
     y="46.44735"
     ry="1.2296066" /><rect
     style="fill:#008000;stroke:none;stroke-width:0.274979"
     id="rect18"
     width="13"
     height="13"
     x="98.727791"
     y="31.630669"
     ry="1.2296066" /><rect
     style="fill:#008000;stroke:none;stroke-width:0.27498"
     id="rect19"
     width="13"
     height="13"
     x="113.54447"
     y="31.630669"
     ry="1.2296066" /><rect
     style="fill:#008000;stroke:none;stroke-width:0.27498"
     id="rect20"
     width="13"
     height="13"
     x="98.727791"
     y="61.26403"
     ry="1.2296066" /><rect
     style="fill:#008000;stroke:none;stroke-width:0.27498"
     id="rect21"
     width="13"
     height="13"
     x="83.911118"
     y="61.26403"
     ry="1.2296066" /><rect
     style="fill:#008000;stroke:none;stroke-width:0.27498"
     id="rect22"
     width="13"
     height="13"
     x="113.54447"
     y="61.26403"
     ry="1.2296066" /><rect
     style="fill:#008000;stroke:none;stroke-width:0.27498"
     id="rect23"
     width="13"
     height="13"
     x="98.727791"
     y="76.080711"
     ry="1.2296066" /><rect
     style="fill:#d40000;stroke:none;stroke-width:0.232676"
     id="rect24"
     width="11"
     height="11"
     x="70.440231"
     y="120.96272"
     ry="1.0404364" /><rect
     style="fill:#008000;stroke:none;stroke-width:0.232675"
     id="rect573"
     width="11"
     height="11"
     x="5.0694804"
     y="95.069031"
     ry="1.0404364" /><use
     x="0"
     y="0"
     xlink:href="#rect573"
     id="use573"
     style="fill:#ff0000" /><use
     x="0"
     y="0"
     xlink:href="#rect573"
     transform="translate(1.2875953e-7,13)"
     id="use574" /><use
     x="0"
     y="0"
     xlink:href="#rect573"
     transform="translate(1.2875953e-7,25.999999)"
     id="use575" /><use
     x="0"
     y="0"
     xlink:href="#rect573"
     transform="translate(1.2875953e-7,51.999999)"
     id="use577" /><use
     x="0"
     y="0"
     xlink:href="#rect573"
     transform="translate(13)"
     id="use583" /><use
     x="0"
     y="0"
     xlink:href="#rect573"
     transform="translate(13,25.999999)"
     id="use585"
     style="fill:#ececec" /><use
     x="0"
     y="0"
     xlink:href="#rect573"
     transform="translate(13,51.999999)"
     id="use587"
     style="fill:#00ff00" /><use
     x="0"
     y="0"
     xlink:href="#rect573"
     transform="translate(25.999999)"
     id="use593" /><use
     x="0"
     y="0"
     xlink:href="#rect573"
     transform="translate(25.999999,25.999999)"
     id="use595" /><use
     x="0"
     y="0"
     xlink:href="#rect573"
     transform="translate(25.999999,38.999999)"
     id="use596" /><use
     x="0"
     y="0"
     xlink:href="#rect573"
     transform="translate(25.999999,51.999999)"
     id="use597" /><use
     x="0"
     y="0"
     xlink:href="#rect573"
     transform="translate(52.403033)"
     id="use603" /><use
     x="0"
     y="0"
     xlink:href="#rect573"
     transform="translate(52.403033,13)"
     id="use604" /><use
     x="0"
     y="0"
     xlink:href="#rect573"
     transform="translate(52.403033,25.999999)"
     id="use605" /><use
     x="0"
     y="0"
     xlink:href="#rect573"
     transform="translate(52.403033,38.999999)"
     id="use606"
     style="fill:#2b0000" /><use
     x="0"
     y="0"
     xlink:href="#rect573"
     transform="translate(52.403033,51.999999)"
     id="use607" /><use
     x="0"
     y="0"
     xlink:href="#rect573"
     transform="translate(65.403033)"
     id="use613" /><use
     x="0"
     y="0"
     xlink:href="#rect573"
     transform="translate(78.403033)"
     id="use623" /><use
     x="0"
     y="0"
     xlink:href="#rect573"
     transform="translate(78.403033,13)"
     id="use624" /><use
     x="0"
     y="0"
     xlink:href="#rect573"
     transform="translate(78.403033,25.999999)"
     id="use625" /><use
     x="0"
     y="0"
     xlink:href="#rect573"
     transform="translate(78.403033,38.999999)"
     id="use626" /><use
     x="0"
     y="0"
     xlink:href="#rect573"
     transform="translate(78.403033,51.999999)"
     id="use627" /><use
     x="0"
     y="0"
     xlink:href="#rect573"
     transform="translate(104.80607)"
     id="use633" /><use
     x="0"
     y="0"
     xlink:href="#rect573"
     transform="translate(104.80607,13)"
     id="use634" /><use
     x="0"
     y="0"
     xlink:href="#rect573"
     transform="translate(104.80607,25.999999)"
     id="use635" /><use
     x="0"
     y="0"
     xlink:href="#rect573"
     transform="translate(104.80607,38.999999)"
     id="use636" /><use
     x="0"
     y="0"
     xlink:href="#rect573"
     transform="translate(104.80607,51.999999)"
     id="use637" /><use
     x="0"
     y="0"
     xlink:href="#rect573"
     transform="translate(117.80606)"
     id="use643" /><use
     x="0"
     y="0"
     xlink:href="#rect573"
     transform="translate(130.80607,13)"
     id="use654" /><use
     x="0"
     y="0"
     xlink:href="#rect573"
     transform="translate(130.80607,25.999999)"
     id="use655" /><use
     x="0"
     y="0"
     xlink:href="#rect573"
     transform="translate(130.80607,38.999999)"
     id="use656" /><use
     x="0"
     y="0"
     xlink:href="#rect573"
     transform="translate(117.8215,52.126555)"
     id="use657-4" /><use
     x="0"
     y="0"
     xlink:href="#rect573"
     transform="translate(157.2091)"
     id="use663" /><use
     x="0"
     y="0"
     xlink:href="#rect573"
     transform="translate(157.2091,13)"
     id="use664" /><use
     x="0"
     y="0"
     xlink:href="#rect573"
     transform="translate(157.2091,25.999999)"
     id="use665" /><use
     x="0"
     y="0"
     xlink:href="#rect573"
     transform="translate(157.2091,38.999999)"
     id="use666" /><use
     x="0"
     y="0"
     xlink:href="#rect573"
     transform="translate(157.2091,51.999999)"
     id="use667" /><use
     x="0"
     y="0"
     xlink:href="#rect573"
     transform="translate(170.18885)"
     id="use673" /><use
     x="0"
     y="0"
     xlink:href="#rect573"
     transform="translate(170.22984,51.999999)"
     id="use677" /><use
     x="0"
     y="0"
     xlink:href="#rect573"
     transform="translate(183.2091,12.642284)"
     id="use684" /><use
     x="0"
     y="0"
     xlink:href="#rect573"
     transform="translate(183.2091,25.534248)"
     id="use685" /><use
     x="0"
     y="0"
     xlink:href="#rect573"
     transform="translate(183.2091,38.426212)"
     id="use686" /><rect
     style="fill:#008000;stroke:none;stroke-width:0.27498"
     id="rect1"
     width="13"
     height="13"
     x="83.91111"
     y="76.080711"
     ry="1.2296066" /></svg>
