<svg width="25" height="17" viewBox="0 0 25 17" fill="none" xmlns="http://www.w3.org/2000/svg">
<path d="M24.9281 7.99584C24.8917 7.91355 24.0094 5.95625 22.0479 3.99479C19.4344 1.38125 16.1333 0 12.5 0C8.86666 0 5.56562 1.38125 2.95208 3.99479C0.990616 5.95625 0.104157 7.91667 0.0718651 7.99584C0.0244829 8.10241 0 8.21775 0 8.33438C0 8.45101 0.0244829 8.56635 0.0718651 8.67292C0.108323 8.75521 0.990616 10.7115 2.95208 12.6729C5.56562 15.2854 8.86666 16.6667 12.5 16.6667C16.1333 16.6667 19.4344 15.2854 22.0479 12.6729C24.0094 10.7115 24.8917 8.75521 24.9281 8.67292C24.9755 8.56635 25 8.45101 25 8.33438C25 8.21775 24.9755 8.10241 24.9281 7.99584ZM12.5 15C9.29375 15 6.4927 13.8344 4.17395 11.5365C3.22254 10.5903 2.4131 9.51142 1.77082 8.33334C2.41293 7.15515 3.22238 6.07623 4.17395 5.13021C6.4927 2.83229 9.29375 1.66667 12.5 1.66667C15.7063 1.66667 18.5073 2.83229 20.826 5.13021C21.7793 6.076 22.5905 7.15492 23.2344 8.33334C22.4833 9.73542 19.2115 15 12.5 15ZM12.5 3.33334C11.5111 3.33334 10.5444 3.62658 9.72215 4.17599C8.8999 4.7254 8.25904 5.50629 7.8806 6.41992C7.50216 7.33355 7.40314 8.33889 7.59607 9.30879C7.789 10.2787 8.2652 11.1696 8.96446 11.8689C9.66373 12.5681 10.5546 13.0443 11.5245 13.2373C12.4945 13.4302 13.4998 13.3312 14.4134 12.9527C15.3271 12.5743 16.1079 11.9334 16.6574 11.1112C17.2068 10.2889 17.5 9.32225 17.5 8.33334C17.4986 7.00768 16.9714 5.73671 16.034 4.79933C15.0966 3.86194 13.8257 3.33471 12.5 3.33334ZM12.5 11.6667C11.8407 11.6667 11.1963 11.4712 10.6481 11.1049C10.0999 10.7386 9.67269 10.218 9.4204 9.60895C9.16811 8.99986 9.1021 8.32964 9.23071 7.68304C9.35933 7.03643 9.6768 6.44249 10.143 5.97632C10.6091 5.51014 11.2031 5.19267 11.8497 5.06405C12.4963 4.93544 13.1665 5.00145 13.7756 5.25374C14.3847 5.50603 14.9053 5.93327 15.2716 6.48144C15.6378 7.0296 15.8333 7.67407 15.8333 8.33334C15.8333 9.2174 15.4821 10.0652 14.857 10.6904C14.2319 11.3155 13.3841 11.6667 12.5 11.6667Z" fill="#376F6C" fill-opacity="0.8"/>
</svg>
