<svg width="150" height="145" viewBox="0 0 150 145" fill="none" xmlns="http://www.w3.org/2000/svg">
<path d="M149.15 135.466C138.177 116.496 121.268 102.894 101.535 96.4458C111.296 90.635 118.879 81.7807 123.121 71.2427C127.363 60.7046 128.028 49.0656 125.015 38.1128C122.001 27.1601 115.476 17.4993 106.441 10.6141C97.4053 3.72892 86.3597 0 75 0C63.6403 0 52.5947 3.72892 43.5594 10.6141C34.5241 17.4993 27.9987 27.1601 24.9853 38.1128C21.972 49.0656 22.6373 60.7046 26.879 71.2427C31.1208 81.7807 38.7045 90.635 48.4655 96.4458C28.7322 102.887 11.823 116.489 0.850403 135.466C0.448019 136.122 0.181121 136.852 0.065455 137.613C-0.0502106 138.374 -0.0123002 139.15 0.176949 139.896C0.366199 140.642 0.702954 141.343 1.16735 141.957C1.63174 142.57 2.21436 143.085 2.88083 143.47C3.54731 143.855 4.28414 144.103 5.04785 144.198C5.81156 144.294 6.58668 144.235 7.32748 144.027C8.06828 143.818 8.75975 143.463 9.36109 142.982C9.96243 142.502 10.4615 141.906 10.8288 141.229C24.4022 117.771 48.3935 103.766 75 103.766C101.607 103.766 125.598 117.771 139.171 141.229C139.539 141.906 140.038 142.502 140.639 142.982C141.24 143.463 141.932 143.818 142.673 144.027C143.413 144.235 144.188 144.294 144.952 144.198C145.716 144.103 146.453 143.855 147.119 143.47C147.786 143.085 148.368 142.57 148.833 141.957C149.297 141.343 149.634 140.642 149.823 139.896C150.012 139.15 150.05 138.374 149.935 137.613C149.819 136.852 149.552 136.122 149.15 135.466ZM34.6543 51.8926C34.6543 43.913 37.0206 36.1126 41.4538 29.4778C45.887 22.843 52.1882 17.6717 59.5604 14.6181C66.9326 11.5644 75.0448 10.7654 82.8711 12.3222C90.6974 13.8789 97.8863 17.7215 103.529 23.3639C109.171 29.0064 113.014 36.1953 114.57 44.0216C116.127 51.8479 115.328 59.96 112.275 67.3323C109.221 74.7045 104.05 81.0056 97.4149 85.4388C90.7801 89.8721 82.9796 92.2383 75 92.2383C64.3032 92.2269 54.0477 87.9725 46.4839 80.4087C38.9201 72.8449 34.6658 62.5895 34.6543 51.8926Z" fill="#376F6C" fill-opacity="0.8"/>
</svg>
